<svg width="38" height="50" viewBox="0 0 38 50" fill="none" xmlns="http://www.w3.org/2000/svg">
<path fill-rule="evenodd" clip-rule="evenodd" d="M15.1155 0V41.5911H15.107C15.1275 43.9078 13.1032 46.6346 9.90445 48.2813C5.9411 50.3215 1.67565 49.9309 0.377292 47.4088C-0.921062 44.8866 1.23934 41.1881 5.20269 39.1478C7.89343 37.7627 10.7234 37.498 12.6696 38.26V0H15.1155ZM16 40.0002C22.8798 40.0002 28.1903 37.5409 31.7838 33.751C35.3578 29.9817 37.1539 24.9808 37.1875 20.0103C37.2211 15.0392 35.4918 10.0295 31.9269 6.25186C28.3427 2.4539 22.9964 0.000134706 16 0.000183105L16 3.00018C22.2536 3.00014 26.7823 5.17134 29.745 8.31086C32.7269 11.4707 34.2164 15.7111 34.1875 19.99C34.1586 24.2695 32.611 28.5186 29.6068 31.6868C26.6222 34.8345 22.1202 37.0002 16 37.0002V40.0002ZM20.9318 5.57223C19.4201 5.19918 17.7748 4.99999 16 4.99999V7.99999C17.5498 7.99999 18.9527 8.17384 20.213 8.48485L20.9318 5.57223ZM16 35C24.7629 35 30.1938 30.1312 31.912 24.1747C33.6012 18.3187 31.6508 11.4897 25.9793 7.74794L24.3272 10.2521C28.7968 13.2008 30.3914 18.6218 29.0295 23.3432C27.6966 27.9641 23.4804 32 16 32V35ZM16 25C17.4744 25 18.7156 24.4995 19.5919 23.6232C20.4541 22.761 20.875 21.621 20.875 20.5C20.875 19.379 20.4541 18.239 19.5919 17.3768C18.7156 16.5005 17.4744 16 16 16V19C16.7756 19 17.2219 19.2495 17.4706 19.4982C17.7334 19.761 17.875 20.121 17.875 20.5C17.875 20.879 17.7334 21.239 17.4706 21.5018C17.2219 21.7505 16.7756 22 16 22L16 25Z" fill="black"/>
</svg>
