<svg width="140" height="51" viewBox="0 0 140 51" fill="none" xmlns="http://www.w3.org/2000/svg">
<path d="M15.1155 42.2072V0.61615H12.6696V38.8761C10.7234 38.1141 7.89343 38.3788 5.20269 39.764C1.23935 41.8042 -0.92106 45.5028 0.377293 48.0249C1.67565 50.5471 5.9411 50.9377 9.90445 48.8974C13.1032 47.2508 15.1275 44.524 15.107 42.2072H15.1155Z" fill="white"/>
<path fill-rule="evenodd" clip-rule="evenodd" d="M35.7738 43.7586C32.5589 49.0479 26.4342 51.4486 22.0938 49.1207C17.7535 46.7928 16.8411 40.6179 20.056 35.3285C23.2709 30.0392 29.3957 27.6385 33.736 29.9664C34.8802 30.5801 35.7861 31.461 36.441 32.5226L36.4926 32.4977L44.27 49.1207L42.3133 50.0225L37.4861 39.3893C37.205 40.8484 36.6388 42.3355 35.7738 43.7586ZM33.6184 42.6026C30.819 47.2083 26.0808 48.4877 23.3642 47.0307C20.6476 45.5736 19.412 41.0903 22.2114 36.4846C25.0109 31.8788 29.7491 30.5995 32.4657 32.0565C35.1823 33.5135 36.4179 37.9968 33.6184 42.6026Z" fill="white"/>
<path d="M48.9171 30.4556V32.1068C48.9449 32.0876 48.9728 32.0686 49.0009 32.0498C50.4563 31.0748 52.3149 30.6801 54.0887 30.7313C55.8652 30.7825 57.696 31.2844 59.1193 32.2652C59.5607 32.5694 59.9668 32.9236 60.3181 33.3262C60.708 32.8172 61.1835 32.3821 61.7193 32.0231C63.1748 31.0481 65.0333 30.6534 66.8072 30.7046C68.5836 30.7559 70.4144 31.2577 71.8378 32.2385C73.1731 33.1587 74.1852 34.5373 74.3349 36.3257H74.3541V50.0225H71.9082V36.7882C71.9082 35.7453 71.3864 34.8978 70.4499 34.2525C69.4886 33.59 68.1398 33.1899 66.7366 33.1494C65.3308 33.1089 64.0098 33.4327 63.0805 34.0552C62.1981 34.6463 61.6356 35.5177 61.6356 36.7882C61.6356 36.7971 61.6356 36.806 61.6356 36.8149V50.0225H59.1897V36.8149C59.1897 35.772 58.6679 34.9245 57.7315 34.2792C56.7701 33.6167 55.4213 33.2166 54.0182 33.1761C52.6124 33.1356 51.2914 33.4594 50.3621 34.0819C49.4796 34.673 48.9171 35.5444 48.9171 36.8149V50.0225H46.4713V30.4556H48.9171Z" fill="white"/>
<path d="M130.12 31.8616V30.4556H127.674V50.0225H130.12V36.9779C130.12 35.5486 130.569 34.6992 131.131 34.1741C131.721 33.6224 132.574 33.3007 133.574 33.2099C134.57 33.1194 135.614 33.2698 136.459 33.5583C136.879 33.7019 137.222 33.8702 137.472 34.0371C137.734 34.2119 137.829 34.3414 137.849 34.3792L140 33.2141C139.722 32.7013 139.28 32.3031 138.83 32.0029C138.369 31.6947 137.826 31.4405 137.25 31.2438C136.102 30.8518 134.714 30.6505 133.353 30.7741C132.251 30.8741 131.103 31.1943 130.12 31.8616Z" fill="white"/>
<path d="M78.2675 30.4556V32.1068C78.2952 32.0876 78.3231 32.0686 78.3512 32.0498C79.8066 31.0748 81.6652 30.6801 83.439 30.7313C85.2155 30.7825 87.0463 31.2844 88.4696 32.2652C88.911 32.5694 89.3171 32.9236 89.6684 33.3262C90.0583 32.8172 90.5338 32.3821 91.0696 32.0231C92.5251 31.0481 94.3837 30.6534 96.1575 30.7046C97.9339 30.7559 99.7647 31.2577 101.188 32.2385C102.523 33.1587 103.536 34.5373 103.685 36.3257H103.704V50.0225H101.259V36.7882C101.259 35.7453 100.737 34.8978 99.8003 34.2525C98.8389 33.59 97.4901 33.1899 96.0869 33.1494C94.6812 33.1089 93.3601 33.4327 92.4309 34.0552C91.5484 34.6463 90.9859 35.5177 90.9859 36.7882C90.986 36.7971 90.9859 36.806 90.9859 36.8149V50.0225H88.5401V36.8149C88.54 35.772 88.0182 34.9245 87.0818 34.2792C86.1205 33.6167 84.7716 33.2166 83.3685 33.1761C81.9627 33.1356 80.6417 33.4594 79.7124 34.0819C78.83 34.673 78.2675 35.5444 78.2675 36.8149V50.0225H75.8216V30.4556H78.2675Z" fill="white"/>
<path d="M125.228 38.6714C125.22 36.0085 124.013 33.941 122.231 32.5618C120.474 31.2017 118.187 30.5256 115.952 30.4917C113.718 30.4578 111.416 31.0643 109.642 32.4192C107.943 33.7172 106.788 35.6624 106.653 38.1934H106.639V42.721H106.651C106.755 45.0339 107.584 46.9222 109.113 48.2382C110.722 49.6234 112.94 50.2323 115.444 50.2323C117.805 50.2323 120.209 49.9865 122.052 48.9829C123 48.467 123.814 47.7435 124.382 46.7526C124.948 45.7657 125.228 44.5875 125.228 43.224H122.782C122.782 44.2502 122.573 44.99 122.26 45.5358C121.949 46.0777 121.494 46.5019 120.883 46.8348C119.607 47.5291 117.731 47.7864 115.444 47.7864C113.302 47.7864 111.729 47.2633 110.709 46.3847C109.717 45.5311 109.085 44.2028 109.085 42.2179V38.6965C109.085 36.6966 109.91 35.2922 111.127 34.3629C112.38 33.4058 114.114 32.9099 115.915 32.9373C117.716 32.9646 119.465 33.5134 120.734 34.496C121.968 35.4507 122.775 36.8268 122.782 38.6714L116.178 38.6714L116.178 41.1172L125.228 41.1172V38.6964L125.228 38.6714Z" fill="white"/>
</svg>
