<svg width="140" height="50" viewBox="0 0 140 50" fill="none" xmlns="http://www.w3.org/2000/svg">
<path d="M15.1155 41.5911V0H12.6696V38.26C10.7234 37.498 7.89343 37.7627 5.20269 39.1478C1.23935 41.1881 -0.92106 44.8866 0.377293 47.4088C1.67565 49.9309 5.9411 50.3215 9.90445 48.2813C13.1032 46.6346 15.1275 43.9078 15.107 41.5911H15.1155Z" fill="black"/>
<path fill-rule="evenodd" clip-rule="evenodd" d="M35.7738 43.1425C32.5589 48.4318 26.4341 50.8325 22.0938 48.5046C17.7534 46.1767 16.841 40.0018 20.056 34.7125C23.2709 29.4231 29.3956 27.0224 33.736 29.3503C34.8801 29.964 35.786 30.8449 36.441 31.9065L36.4925 31.8816L44.2699 48.5046L42.3133 49.4064L37.486 38.7732C37.2049 40.2323 36.6387 41.7195 35.7738 43.1425ZM33.6184 41.9865C30.8189 46.5922 26.0807 47.8716 23.3641 46.4146C20.6475 44.9576 19.4119 40.4742 22.2114 35.8685C25.0108 31.2627 29.749 29.9834 32.4656 31.4404C35.1822 32.8974 36.4178 37.3807 33.6184 41.9865Z" fill="black"/>
<path d="M48.917 29.8395V31.4907C48.9448 31.4715 48.9727 31.4524 49.0008 31.4336C50.4562 30.4587 52.3148 30.064 54.0886 30.1151C55.8651 30.1664 57.6959 30.6682 59.1192 31.6491C59.5606 31.9532 59.9667 32.3075 60.318 32.7101C60.7079 32.201 61.1834 31.7659 61.7192 31.407C63.1747 30.432 65.0333 30.0373 66.8071 30.0885C68.5835 30.1397 70.4143 30.6415 71.8377 31.6224C73.173 32.5425 74.1851 33.9211 74.3348 35.7095H74.354V49.4063H71.9081V36.172C71.9081 35.1291 71.3863 34.2816 70.4499 33.6363C69.4885 32.9739 68.1397 32.5738 66.7365 32.5333C65.3308 32.4927 64.0097 32.8165 63.0805 33.439C62.198 34.0301 61.6355 34.9016 61.6355 36.172C61.6356 36.1809 61.6355 36.1898 61.6355 36.1987V49.4063H59.1897V36.1987C59.1896 35.1558 58.6678 34.3083 57.7314 33.663C56.7701 33.0006 55.4212 32.6005 54.0181 32.56C52.6123 32.5194 51.2913 32.8432 50.362 33.4657C49.4796 34.0568 48.917 34.9283 48.917 36.1987V49.4063H46.4712V29.8395H48.917Z" fill="black"/>
<path d="M130.12 31.2454V29.8395H127.674V49.4063H130.12V36.3618C130.12 34.9325 130.569 34.083 131.131 33.5579C131.721 33.0063 132.575 32.6846 133.574 32.5938C134.57 32.5033 135.615 32.6536 136.459 32.9422C136.879 33.0858 137.222 33.2541 137.472 33.4209C137.734 33.5958 137.829 33.7253 137.849 33.763L140 32.598C139.722 32.0852 139.28 31.687 138.83 31.3868C138.369 31.0786 137.826 30.8244 137.25 30.6277C136.103 30.2357 134.714 30.0343 133.353 30.158C132.251 30.258 131.103 30.5782 130.12 31.2454Z" fill="black"/>
<path d="M78.2674 29.8395V31.4907C78.2951 31.4715 78.323 31.4524 78.3511 31.4336C79.8066 30.4587 81.6651 30.064 83.439 30.1151C85.2154 30.1664 87.0462 30.6682 88.4696 31.6491C88.911 31.9532 89.3171 32.3075 89.6684 32.7101C90.0583 32.201 90.5337 31.7659 91.0696 31.407C92.525 30.432 94.3836 30.0373 96.1574 30.0885C97.9339 30.1397 99.7647 30.6415 101.188 31.6224C102.523 32.5425 103.535 33.9211 103.685 35.7095H103.704V49.4063H101.258V36.172C101.258 35.1291 100.737 34.2816 99.8002 33.6363C98.8389 32.9739 97.49 32.5738 96.0869 32.5333C94.6811 32.4927 93.3601 32.8165 92.4308 33.439C91.5484 34.0301 90.9858 34.9016 90.9858 36.172C90.9859 36.1809 90.9858 36.1898 90.9858 36.1987V49.4063H88.54V36.1987C88.54 35.1558 88.0182 34.3083 87.0817 33.663C86.1204 33.0006 84.7716 32.6005 83.3684 32.56C81.9626 32.5194 80.6416 32.8432 79.7123 33.4657C78.8299 34.0568 78.2674 34.9283 78.2674 36.1987V49.4063H75.8215V29.8395H78.2674Z" fill="black"/>
<path d="M125.228 38.0553C125.22 35.3924 124.013 33.325 122.231 31.9457C120.474 30.5856 118.187 29.9095 115.952 29.8756C113.718 29.8417 111.416 30.4482 109.642 31.8032C107.943 33.1011 106.788 35.0464 106.653 37.5773H106.639V42.1049H106.651C106.755 44.4178 107.584 46.3061 109.113 47.6221C110.722 49.0073 112.94 49.6162 115.444 49.6162C117.805 49.6162 120.209 49.3704 122.052 48.3668C123 47.8509 123.814 47.1274 124.382 46.1365C124.948 45.1496 125.228 43.9714 125.228 42.608H122.782C122.782 43.6341 122.573 44.3739 122.26 44.9197C121.949 45.4616 121.494 45.8858 120.883 46.2187C119.607 46.913 117.731 47.1703 115.444 47.1703C113.302 47.1703 111.729 46.6473 110.709 45.7686C109.717 44.915 109.085 43.5867 109.085 41.6018V38.0804C109.085 36.0805 109.91 34.6761 111.127 33.7468C112.38 32.7897 114.114 32.2939 115.915 32.3212C117.716 32.3485 119.465 32.8974 120.734 33.8799C121.968 34.8346 122.775 36.2107 122.782 38.0553L116.178 38.0553L116.178 40.5012L125.228 40.5011V38.0803L125.228 38.0553Z" fill="black"/>
</svg>
