<?xml version="1.0" standalone="no"?>
<!DOCTYPE svg PUBLIC "-//W3C//DTD SVG 20010904//EN"
 "http://www.w3.org/TR/2001/REC-SVG-20010904/DTD/svg10.dtd">
<svg version="1.0" xmlns="http://www.w3.org/2000/svg"
 width="800.000000pt" height="800.000000pt" viewBox="0 0 800.000000 800.000000"
 preserveAspectRatio="xMidYMid meet">
<metadata>
Created by potrace 1.14, written by Peter Selinger 2001-2017
</metadata>
<g transform="translate(0.000000,800.000000) scale(0.100000,-0.100000)"
fill="#000000" stroke="none">
<path d="M2989 7996 c-2 -2 -4 -1379 -3 -3059 0 -2774 -1 -3055 -15 -3052 -9
2 -35 10 -58 19 -24 8 -43 13 -43 11 0 -3 -11 0 -24 4 -76 30 -343 32 -501 5
-79 -13 -213 -49 -287 -76 -46 -16 -92 -32 -103 -36 -58 -17 -380 -193 -405
-222 -3 -3 -30 -23 -60 -45 -30 -22 -66 -51 -81 -65 -14 -14 -43 -41 -65 -61
-93 -86 -173 -188 -270 -344 -30 -48 -63 -134 -89 -229 -59 -216 -5 -431 143
-574 40 -38 116 -94 132 -97 3 -1 28 -12 55 -25 28 -12 59 -27 70 -31 19 -9
137 -35 201 -45 51 -8 225 -8 304 0 76 7 288 50 325 65 11 5 61 23 110 41 164
58 420 200 534 295 185 153 284 265 398 450 34 55 83 182 110 284 4 14 8 1548
9 3409 l2 3382 -192 0 c-106 0 -195 -2 -197 -4z"/>
<path d="M3519 7983 c-1 -32 0 -129 2 -139 1 -5 1 -12 -1 -16 -4 -17 -2 -99 2
-104 3 -2 2 -21 -2 -42 -3 -20 -3 -49 1 -63 3 -15 3 -33 -1 -40 -5 -7 -5 -20
0 -30 5 -9 6 -19 3 -23 -3 -3 9 -6 28 -7 75 -1 267 -9 309 -13 25 -3 77 -7
115 -11 39 -3 77 -8 85 -10 8 -3 33 -7 55 -10 69 -10 198 -35 240 -46 22 -6
51 -13 65 -15 29 -5 269 -80 308 -96 15 -6 33 -12 40 -14 7 -1 31 -12 52 -23
22 -11 40 -19 40 -16 0 7 224 -106 310 -158 124 -74 251 -165 379 -272 65 -54
232 -228 296 -310 22 -27 42 -52 45 -55 5 -5 13 -17 81 -115 84 -121 222 -380
254 -475 1 -3 7 -18 14 -35 7 -16 14 -34 15 -40 3 -9 8 -23 24 -65 3 -8 6 -17
7 -20 1 -3 11 -36 23 -75 25 -82 63 -231 67 -260 1 -11 5 -33 8 -50 4 -16 9
-50 13 -75 4 -25 8 -56 10 -70 19 -128 26 -493 11 -640 -14 -145 -14 -147 -62
-380 -2 -8 -9 -35 -16 -60 -7 -25 -14 -54 -16 -65 -16 -93 -180 -502 -206
-513 -4 -2 -5 -7 -2 -12 3 -4 -2 -13 -10 -20 -8 -7 -15 -17 -15 -23 0 -13
-101 -181 -112 -185 -4 -2 -8 -8 -8 -13 0 -12 -110 -163 -122 -167 -4 -2 -8
-8 -8 -13 0 -5 -8 -17 -17 -27 -10 -10 -44 -48 -75 -84 -31 -36 -92 -98 -134
-139 -105 -102 -113 -109 -118 -109 -2 0 -15 -9 -28 -20 -12 -11 -36 -32 -53
-46 -134 -115 -507 -323 -690 -385 -16 -6 -39 -15 -50 -19 -31 -14 -248 -80
-280 -86 -5 -1 -13 -3 -17 -4 -9 -3 -11 -3 -63 -15 -22 -4 -47 -10 -55 -12 -8
-2 -26 -5 -40 -8 -14 -2 -52 -9 -85 -15 -96 -17 -137 -22 -177 -24 -21 0 -38
-3 -38 -6 0 -5 -25 -7 -258 -15 -135 -4 -157 -8 -146 -26 3 -6 5 -50 4 -97 -3
-176 -2 -273 3 -278 3 -3 2 -18 -3 -33 -4 -16 -4 -35 1 -42 5 -8 9 -11 9 -7 0
4 13 3 29 -2 16 -4 32 -6 35 -3 3 3 51 7 108 8 127 4 294 17 358 29 14 2 52 7
85 11 32 4 62 8 65 10 3 2 26 6 50 10 72 10 178 34 280 61 52 14 102 27 110
29 58 14 313 108 395 146 28 13 52 24 55 24 3 1 55 26 116 57 394 199 748 491
1021 842 18 22 38 48 46 57 7 8 17 22 20 30 8 16 111 167 127 186 5 7 10 15
10 19 0 3 8 18 19 32 25 36 130 240 165 322 16 36 34 79 42 95 15 32 101 275
103 288 0 4 7 31 16 61 15 51 20 70 31 125 3 14 7 28 9 32 3 4 7 24 10 45 4
22 8 47 11 56 3 10 7 30 10 45 2 16 7 39 9 53 3 14 7 43 10 65 3 22 7 50 9 63
12 60 20 227 21 422 0 211 -7 331 -29 480 -6 42 -9 60 -21 120 -3 14 -7 39 -9
55 -14 99 -95 376 -157 535 -18 47 -33 87 -34 90 -1 8 -152 312 -172 345 -10
17 -21 32 -25 33 -5 2 -8 8 -8 14 0 17 -169 265 -210 309 -8 8 -25 29 -38 45
-87 113 -294 320 -409 411 -45 35 -114 90 -130 103 -7 6 -15 10 -17 10 -3 0
-32 19 -63 43 -32 23 -67 47 -78 54 -11 6 -54 32 -95 57 -117 69 -254 138
-415 206 -89 38 -337 118 -460 149 -125 31 -144 35 -235 51 -30 6 -66 12 -80
15 -14 3 -43 8 -65 10 -22 3 -50 7 -62 9 -12 3 -57 8 -100 12 -43 3 -91 8
-108 10 -16 2 -105 6 -197 9 -157 6 -168 5 -169 -12z"/>
<path d="M3524 7197 c-3 -9 -4 -26 -1 -37 3 -11 2 -20 -1 -20 -6 0 -7 -139 -2
-250 1 -14 0 -49 -2 -78 -2 -28 0 -52 4 -52 4 0 5 -7 2 -15 -9 -23 5 -36 25
-25 10 5 21 7 24 4 3 -4 48 -8 99 -9 120 -5 216 -15 378 -40 14 -2 52 -10 85
-18 l61 -14 19 81 c10 44 20 88 22 96 1 8 18 76 37 150 20 74 36 136 36 136 0
1 -15 5 -32 9 -18 4 -40 9 -48 12 -8 2 -26 5 -40 8 -14 2 -45 8 -70 13 -25 5
-52 10 -60 10 -14 1 -46 6 -115 17 -51 9 -205 19 -305 19 -52 1 -98 5 -102 11
-4 5 -10 2 -14 -8z"/>
<path d="M5075 6697 c-22 -34 -42 -64 -45 -67 -3 -3 -26 -36 -50 -75 -25 -38
-48 -71 -52 -73 -5 -2 -8 -8 -8 -13 0 -5 -16 -33 -35 -62 -24 -35 -31 -53 -23
-56 12 -4 75 -48 88 -61 3 -3 23 -19 45 -35 54 -40 211 -196 271 -270 27 -33
51 -62 54 -65 3 -3 11 -17 19 -32 8 -15 22 -37 33 -47 10 -11 18 -23 18 -26 0
-3 12 -24 27 -48 23 -37 85 -153 88 -167 1 -3 12 -27 24 -55 24 -53 80 -215
87 -250 10 -51 13 -66 17 -73 3 -4 8 -29 11 -56 4 -27 9 -53 11 -56 18 -28 26
-391 12 -525 -18 -176 -80 -414 -138 -528 -12 -23 -21 -43 -20 -45 6 -7 -88
-177 -145 -262 -80 -120 -108 -154 -219 -266 -147 -149 -300 -261 -486 -354
-102 -52 -271 -120 -334 -136 -14 -4 -41 -11 -105 -29 -30 -8 -64 -17 -75 -20
-11 -2 -31 -6 -45 -9 -23 -5 -79 -15 -125 -21 -11 -2 -33 -6 -50 -8 -78 -14
-237 -24 -384 -27 -20 0 -23 -4 -19 -30 3 -17 2 -30 -1 -30 -5 0 -6 -205 -2
-389 l1 -30 158 4 c86 3 166 6 177 9 34 7 149 20 168 19 9 0 17 4 17 9 0 5 5
6 10 3 12 -7 180 26 311 61 52 14 101 27 109 29 8 2 42 14 75 25 54 19 87 32
182 72 15 6 30 12 33 13 53 14 363 191 440 252 8 6 51 40 95 74 108 84 295
275 377 384 37 50 71 95 76 101 25 29 135 220 174 304 66 139 80 172 93 220 1
3 5 12 8 20 30 68 101 346 93 365 -2 7 0 17 5 22 6 6 11 27 13 49 2 21 7 64
10 94 6 45 15 151 17 195 1 26 -11 304 -15 335 -2 19 -7 60 -11 90 -3 30 -8
62 -11 70 -3 8 -8 29 -11 45 -8 52 -51 217 -76 295 -126 378 -345 716 -635
977 -126 113 -150 133 -161 133 -5 0 -11 4 -13 8 -2 7 -70 55 -103 75 -6 3
-28 -22 -50 -56z"/>
<path d="M3517 5420 c-3 -11 -2 -20 3 -20 4 0 4 -17 0 -38 -3 -20 -3 -49 1
-64 4 -15 5 -29 2 -32 -7 -7 -8 -95 -1 -102 3 -2 2 -21 -1 -42 -4 -20 -4 -48
-1 -62 4 -14 4 -32 0 -40 -10 -19 5 -60 22 -61 7 -1 27 -3 43 -4 17 -2 30 -4
30 -5 0 -1 10 -3 23 -6 60 -11 135 -69 159 -124 20 -45 26 -126 11 -170 -29
-93 -111 -151 -233 -166 -60 -7 -69 -12 -56 -28 6 -7 9 -15 6 -18 -5 -4 -5
-28 -4 -118 0 -8 -2 -39 -3 -68 -2 -28 1 -52 5 -52 5 0 5 -4 2 -10 -6 -9 -8
-66 -6 -152 l1 -37 78 4 c42 3 86 7 97 9 79 20 141 39 149 47 6 5 17 9 25 9
30 0 155 84 220 149 79 78 139 175 177 286 23 68 27 98 28 195 1 125 -4 171
-29 240 -103 293 -347 474 -671 496 -66 4 -72 3 -77 -16z"/>
</g>
</svg>
