<svg width="6316" height="8322" viewBox="0 0 6316 8322" fill="none" xmlns="http://www.w3.org/2000/svg">
<path d="M2850 64.0001C2801.22 57.9024 2829.94 227.925 2840.22 256C2918.53 469.833 3148.14 529.323 3346.44 580C3499.64 619.151 3649.82 637.807 3805.11 664C3938.72 686.537 4073.37 718.498 4198 772.445C4308.26 820.167 4445.43 894.495 4489.11 1013.78C4513.8 1081.21 4526.03 1152.59 4530 1224C4534.67 1308.02 4555.93 1354.21 4610 1416" stroke="#FF0000" stroke-width="3" stroke-linecap="round"/>
<path d="M4826 1152C4760.66 1093.92 4585.89 1273.3 4538.44 1304C4380.8 1406 4172.04 1410.7 3998.44 1339.56C3894.18 1296.82 3803.44 1226.01 3700.22 1180C3547.38 1111.86 3376.92 1067.33 3209.11 1061.33C3101.19 1057.48 2988.26 1068.04 2882.89 1091.56C2779.63 1114.6 2669.78 1139.99 2585.11 1206.67C2442.09 1319.29 2306 1489.54 2306 1680" stroke="#FF0000" stroke-width="3" stroke-linecap="round"/>
<path d="M4930 1960C4930 1949.52 4920.2 1968.59 4917.56 1972C4903.7 1989.81 4882.37 2001.29 4865.56 2016C4808.33 2066.07 4735.14 2088.85 4661.56 2100C4542.73 2118 4401.67 2109.81 4285.56 2080C4199.42 2057.88 4084.29 1976.78 4034 1904C3975.55 1819.4 3920.66 1740.44 3874.44 1648C3835.32 1569.74 3782.34 1476.51 3714 1419.56C3645.3 1362.31 3601.54 1328 3507.78 1328C3429.81 1328 3346.89 1355.21 3299.78 1420.44C3252.12 1486.44 3221.52 1580.68 3246 1659.56C3286.3 1789.4 3385.3 1852.09 3502.89 1904.89C3621.1 1957.96 3753.65 2001.66 3848.22 2094.22C3933.75 2177.93 3921.32 2317.03 3858 2412.44C3620.84 2769.85 3178.65 2540.28 2846.89 2492.89C2607.08 2458.63 2319.49 2468.09 2122 2625.78C2003.97 2720.02 1927.47 2855.75 1891.78 3000.89C1857.24 3141.34 1885.11 3290.2 1898 3432" stroke="#FF0000" stroke-width="3" stroke-linecap="round"/>
<path d="M2186 3240C2189.85 3135.98 2287.17 3113.13 2370 3080C2492.6 3030.96 2586.25 3007.08 2718 3036C2837.06 3062.14 2915.91 3140.35 2987.78 3233.78C3085.19 3360.41 3185.31 3487.31 3298.44 3600.44C3415.5 3717.5 3637.14 3790.38 3798 3723.11C3947.89 3660.43 3982.79 3522.33 4048.22 3385.78C4112.37 3251.91 4237.04 3166.98 4390 3180.89C4495.68 3190.5 4604.06 3232.98 4693.56 3288.44C4770.15 3335.91 4830.59 3417.67 4914 3448" stroke="#FF0000" stroke-width="3" stroke-linecap="round"/>
<path d="M5274 4776C5210.88 4793.22 5149.36 4842.1 5086.89 4867.56C4988.28 4907.73 4878.43 4938.19 4773.56 4956C4597.25 4985.94 4424.88 5008 4245.56 5008C4021.51 5008 3811.62 4971.64 3597.56 4905.78C3400.19 4845.05 3219.84 4750.05 3034.44 4660.44C2854.85 4573.64 2665.06 4465.88 2534 4312.44C2479.81 4249 2422.39 4190.97 2381.56 4117.33C2339.15 4040.85 2298.89 3961.79 2259.78 3883.56C2227.08 3818.17 2199.43 3750.69 2166.44 3685.33C2139.17 3631.3 2113.84 3566.27 2066 3528" stroke="#FF0000" stroke-width="3" stroke-linecap="round"/>
<path d="M4650 5368C4625.04 5298.67 4559.58 5287.04 4494 5268C4381.8 5235.43 4262.97 5220.3 4146 5232C4040.44 5242.56 3897.29 5314.34 3859.78 5421.33C3811.77 5558.25 3908.02 5657.44 3992.22 5752C4043.2 5809.25 4102.74 5853.63 4156.67 5907.56C4204.82 5955.71 4266.41 6006.65 4294 6070.22C4368.57 6242.05 4272.26 6411.91 4117.56 6499.11C3930.89 6604.32 3666.16 6607.5 3468.67 6530.22C3252.69 6445.71 3090.06 6300.93 2961.56 6111.56C2908.95 6034.04 2869.64 5949.52 2851.78 5856.89C2833.07 5759.86 2836.58 5661.18 2824.22 5563.56C2804.27 5405.96 2764.78 5282.06 2643.78 5176C2516.28 5064.24 2352.11 5010.47 2187.33 4988C2061.22 4970.8 1894.32 4978.84 1801.56 5080.89C1733.14 5156.15 1735.27 5263.7 1714 5358.22C1683.29 5494.73 1649.87 5604.86 1574.44 5725.33C1514.54 5821.02 1438.66 5912.31 1346 5977.78C1276.04 6027.2 1194.41 6036.26 1110.44 6030.22C910.641 6015.85 770.296 5852.66 586 5800" stroke="#FF0000" stroke-width="3" stroke-linecap="round"/>
<path d="M1218 7400C1158.6 7368.74 1147.37 7320.21 1174.44 7258.67C1219.45 7156.37 1287.19 7101.71 1381.11 7044.44C1507.75 6967.23 1683.86 6905.73 1833.56 6924.44C1992.03 6944.25 2136.76 7018.52 2278.89 7088C2408.44 7151.34 2538.44 7225.78 2654.44 7312C2788.76 7411.83 2909.98 7503.54 3066 7569.78C3226.59 7637.95 3378.49 7674.86 3553.11 7686.22C3702.91 7695.96 3846.74 7673.71 3992.22 7640C4195.02 7593.01 4384.88 7489.48 4505.56 7316C4593.64 7189.38 4674.33 7036.64 4717.56 6888.44C4760.65 6740.69 4690 6587.91 4690 6440C4690 6344.42 4689.92 6281.96 4746 6200C4803.2 6116.4 4878.75 6062.56 4962 6006.22C5231.85 5823.6 5537.97 5719.61 5842 5608" stroke="#FF0000" stroke-width="3" stroke-linecap="round"/>
<path d="M5090 456C5052 413.775 5009.97 415.06 4954 406.222C4859.24 391.26 4758.34 399.673 4664.22 416C4564.31 433.331 4475.89 451.315 4387.78 502.222C4277.9 565.707 4197.56 667.107 4090.89 734.667C3946.22 826.292 3761.63 885.624 3588.67 879.555C3437.97 874.268 3291.66 790.07 3153.56 735.555C2933.73 648.78 2729.46 581.424 2490.44 576.444C2322.39 572.943 2160.31 589.797 1999.33 640C1773.17 710.533 1606.59 843.414 1442 1008" stroke="#0075FF" stroke-width="3" stroke-linecap="round"/>
<path d="M2026 2144C2082.36 1960.84 2273.97 1814.42 2442 1737.78C2532.06 1696.7 2654.67 1709.17 2741.56 1752C2847.17 1804.06 2905.65 1882.91 2971.78 1977.78C3052.52 2093.62 3130.21 2208.51 3250 2288C3407.01 2392.18 3598.02 2445.21 3785.11 2414.22C3906 2394.2 4084.22 2342.69 4096.22 2194.67C4108.99 2037.22 4016.11 1902.11 3910.44 1796.44C3791.2 1677.2 3650.17 1573.41 3520.22 1465.78C3465.05 1420.08 3410.9 1372.83 3358.44 1324C3332.63 1299.97 3291.04 1262.43 3290 1224C3287.52 1132.22 3546.21 1132.87 3601.11 1129.78C3826.51 1117.08 4067.57 1158.31 4282.89 1224C4504.2 1291.52 4667.58 1422.92 4831.33 1579.56C4994.5 1735.63 5071.3 1973.64 5122 2188.44C5146.96 2294.19 5167.36 2400.42 5190 2506.67C5208.23 2592.2 5260.42 2654.44 5338.89 2691.56C5603.57 2816.74 5865.61 2726.56 6122 2624" stroke="#0075FF" stroke-width="3" stroke-linecap="round"/>
<path d="M5370 3240C5322.89 3151.02 5205.11 3084.21 5110.44 3064C4876.34 3014.02 4635.72 2957.63 4410 3072C4342.67 3106.11 4242.89 3192.72 4242.89 3276.44C4242.89 3350.14 4306.68 3416.63 4331.78 3483.56C4363.75 3568.83 4369.69 3654.51 4382 3743.11C4390.07 3801.22 4395.67 3919.58 4356.22 3968.89C4274.74 4070.75 4181.57 4120 4053.56 4120C3950.23 4120 3843.74 4103.12 3745.11 4071.56C3623.58 4032.66 3521.49 3954.9 3405.56 3904C3279.92 3848.84 3162.2 3779.1 3040.67 3716C2792.23 3587.01 2546.48 3448.59 2265.56 3404.44C1759.77 3324.96 1332.84 3626.46 1026 4000" stroke="#0075FF" stroke-width="3" stroke-linecap="round"/>
<path d="M1266 4960C1224.74 4913.59 1369.37 4837.07 1395.78 4822.22C1550.39 4735.25 1734.18 4696 1910.44 4696C2029.94 4696 2172.21 4733.89 2240.22 4841.78C2312.61 4956.59 2339.72 5077.38 2357.56 5212.44C2385.76 5425.96 2353.84 5651.75 2402.44 5861.33C2462.12 6118.67 2604.9 6431.91 2895.78 6486.67C3277.33 6558.49 3574.4 6216 3768.67 5936.44C3944.88 5682.86 4101.92 5413.88 4325.56 5197.33C4643.55 4889.42 5033.99 4655.01 5394 4400" stroke="#0075FF" stroke-width="3" stroke-linecap="round"/>
<path d="M754 6600C756.167 6563.16 782.001 6563.67 814 6556.44C894.043 6538.37 990.748 6533.98 1072.22 6537.78C1428.9 6554.42 1778.31 6591.08 2127.78 6668.44C2634.03 6780.51 3118.91 6975.62 3571.33 7229.33C4086.79 7518.39 4518.12 7927.71 4954 8320" stroke="#00FF0A" stroke-width="3" stroke-linecap="round"/>
<path d="M5442 6472C5301.28 6544.49 5119.9 6517.88 4976.22 6464C4827.19 6408.11 4676.64 6367.1 4536.67 6287.11C4283.35 6142.36 4038.82 5995.04 3802 5823.56C3591.34 5671.01 3398.06 5470.37 3237.56 5265.78C3054.21 5032.06 2827 4833.98 2545.56 4728.44C2393.74 4671.51 2236.9 4629.07 2084.67 4572.89C1895.65 4503.13 1715.77 4491.74 1515.78 4513.78C943.859 4576.81 400.178 4838.86 2 5256" stroke="#00FF0A" stroke-width="3" stroke-linecap="round"/>
<path d="M82 4080C163.507 4120.75 264.463 4121.73 352.222 4144C586.898 4203.54 857.049 4151.26 1090 4108C1484.58 4034.72 1822.02 3857.3 2143.33 3620.44C2361.45 3459.66 2545.58 3267.14 2724.67 3064C2870.91 2898.11 3014.89 2684 3029.11 2456.44C3053.74 2062.43 2481.84 2188.7 2271.33 2280C2115.53 2347.58 1945.96 2450.82 1855.33 2599.11C1770.27 2738.3 1817.22 2908.7 1919.33 3025.78C2082.7 3213.09 2317.28 3314.76 2549.56 3388.44C2946.31 3514.3 3360.58 3555.05 3774.89 3531.56C4234.35 3505.5 4703.3 3391.08 5134 3231.56C5545.19 3079.26 5946.31 2913.3 6314 2672" stroke="#00FF0A" stroke-width="3" stroke-linecap="round"/>
<path d="M5602 1440C5518.99 1486.12 5451.9 1566.43 5370.89 1617.78C5265.67 1684.46 5147.35 1727.47 5026 1752C4859.14 1785.73 4688.11 1793.35 4519.33 1769.78C4410.88 1754.63 4299.24 1751.29 4194.89 1716C4103.98 1685.25 4020.63 1642.16 3938 1593.78C3778.95 1500.64 3658.55 1384.7 3539.78 1245.33C3399.14 1080.3 3232.8 922.918 3027.78 843.556C2655.9 699.604 2202.25 742.299 1826 843.556C1429.84 950.17 1051.25 1204.73 818 1544" stroke="#00FF0A" stroke-width="3" stroke-linecap="round"/>
<path d="M5314 71.9999C5277.72 39.3485 5219.4 38.5789 5173.56 27.9999C5042.8 -2.17341 4903.52 -3.30343 4770.89 11.9999C4640.65 27.0277 4507.44 47.493 4382.44 87.9999C4235.81 135.519 4100 207.309 3960.22 272C3814.55 339.42 3664.06 410.819 3500.67 415.555C3403.89 418.36 3302.25 431.312 3206 419.111C3117.33 407.872 3033.23 381.982 2949.56 351.555C2741.94 276.058 2545.93 170.799 2338.89 94.2221C2027.95 -20.7817 1717.97 -6.85444 1394 23.9999" stroke="#00FF0A" stroke-width="3" stroke-linecap="round"/>
</svg>
